<mxfile host="app.diagrams.net" modified="2024-03-08T13:29:38.592Z" agent="Mozilla/5.0 (Windows NT 10.0; Win64; x64) AppleWebKit/537.36 (KHTML, like Gecko) Chrome/121.0.0.0 Safari/537.36" etag="tRqJroHdyXAXhXNEhSrq" version="24.0.2" type="github">
  <diagram name="Lapa-1" id="hPBib6w_KPKd4tv0tzOv">
    <mxGraphModel dx="2261" dy="780" grid="1" gridSize="10" guides="1" tooltips="1" connect="1" arrows="1" fold="1" page="1" pageScale="1" pageWidth="827" pageHeight="1169" math="0" shadow="0">
      <root>
        <mxCell id="0" />
        <mxCell id="1" parent="0" />
        <mxCell id="scK6qHFKL6W_OOcYIBbe-1" value="" style="rounded=0;whiteSpace=wrap;html=1;" vertex="1" parent="1">
          <mxGeometry x="-40" y="60" width="370" height="750" as="geometry" />
        </mxCell>
        <mxCell id="scK6qHFKL6W_OOcYIBbe-2" value="clickable task" style="rounded=0;whiteSpace=wrap;html=1;" vertex="1" parent="1">
          <mxGeometry x="-10" y="110" width="290" height="60" as="geometry" />
        </mxCell>
        <mxCell id="scK6qHFKL6W_OOcYIBbe-4" value="when" style="text;html=1;align=center;verticalAlign=middle;whiteSpace=wrap;rounded=0;" vertex="1" parent="1">
          <mxGeometry y="180" width="60" height="30" as="geometry" />
        </mxCell>
        <mxCell id="scK6qHFKL6W_OOcYIBbe-5" value="from who" style="text;html=1;align=center;verticalAlign=middle;whiteSpace=wrap;rounded=0;" vertex="1" parent="1">
          <mxGeometry y="210" width="60" height="30" as="geometry" />
        </mxCell>
        <mxCell id="scK6qHFKL6W_OOcYIBbe-6" value="urgency" style="text;html=1;align=center;verticalAlign=middle;whiteSpace=wrap;rounded=0;" vertex="1" parent="1">
          <mxGeometry y="240" width="60" height="30" as="geometry" />
        </mxCell>
        <mxCell id="scK6qHFKL6W_OOcYIBbe-7" value="statuss" style="text;html=1;align=center;verticalAlign=middle;whiteSpace=wrap;rounded=0;" vertex="1" parent="1">
          <mxGeometry y="270" width="60" height="30" as="geometry" />
        </mxCell>
        <mxCell id="scK6qHFKL6W_OOcYIBbe-8" value="description" style="text;html=1;align=center;verticalAlign=middle;whiteSpace=wrap;rounded=0;" vertex="1" parent="1">
          <mxGeometry y="300" width="60" height="30" as="geometry" />
        </mxCell>
        <mxCell id="scK6qHFKL6W_OOcYIBbe-10" style="edgeStyle=orthogonalEdgeStyle;rounded=0;orthogonalLoop=1;jettySize=auto;html=1;" edge="1" parent="1" source="scK6qHFKL6W_OOcYIBbe-9">
          <mxGeometry relative="1" as="geometry">
            <mxPoint x="480" y="355" as="targetPoint" />
          </mxGeometry>
        </mxCell>
        <mxCell id="scK6qHFKL6W_OOcYIBbe-9" value="completed" style="rounded=1;whiteSpace=wrap;html=1;" vertex="1" parent="1">
          <mxGeometry x="70" y="340" width="120" height="30" as="geometry" />
        </mxCell>
        <mxCell id="scK6qHFKL6W_OOcYIBbe-11" value="button that changes it to completed" style="text;html=1;align=center;verticalAlign=middle;resizable=0;points=[];autosize=1;strokeColor=none;fillColor=none;" vertex="1" parent="1">
          <mxGeometry x="470" y="340" width="210" height="30" as="geometry" />
        </mxCell>
      </root>
    </mxGraphModel>
  </diagram>
</mxfile>
